<svg width="22" height="23" viewBox="0 0 22 23" fill="none" xmlns="http://www.w3.org/2000/svg">
<path d="M17.99 18.6566H18M17.99 18.6566C17.368 19.2736 16.24 19.1206 15.448 19.1206C14.476 19.1206 14.008 19.3106 13.315 20.0036C12.725 20.5936 11.934 21.6566 11 21.6566C10.066 21.6566 9.275 20.5936 8.685 20.0036C7.991 19.3106 7.523 19.1206 6.552 19.1206C5.761 19.1206 4.632 19.2746 4.009 18.6566C3.382 18.0346 3.536 16.9006 3.536 16.1046C3.536 15.0976 3.316 14.6346 2.599 13.9186C1.533 12.8526 1 12.3186 1 11.6566C1 10.9946 1.533 10.4606 2.6 9.39465C3.24 8.75465 3.536 8.12065 3.536 7.20865C3.536 6.41765 3.382 5.28865 4 4.66565C4.622 4.03865 5.756 4.19265 6.552 4.19265C7.464 4.19265 8.098 3.89565 8.738 3.25565C9.804 2.18965 10.338 1.65665 11 1.65665C11.662 1.65665 12.196 2.18965 13.262 3.25665C13.902 3.89665 14.536 4.19265 15.448 4.19265C16.239 4.19265 17.368 4.03865 17.991 4.65665C18.618 5.27865 18.464 6.41265 18.464 7.20865C18.464 8.21565 18.684 8.67865 19.401 9.39465C20.467 10.4606 21 10.9946 21 11.6566C21 12.3186 20.467 12.8526 19.4 13.9186C18.684 14.6356 18.464 15.0986 18.464 16.1046C18.464 16.9006 18.617 18.0346 17.99 18.6566Z" stroke="#FF5134" stroke-width="2" stroke-linecap="round" stroke-linejoin="round"/>
<path d="M8 12.5496C8 12.5496 9.2 13.2016 9.8 14.1566C9.8 14.1566 11.6 10.4066 14 9.15665" stroke="#FF5134" stroke-width="2" stroke-linecap="round" stroke-linejoin="round"/>
</svg>
