<svg width="31" height="31" viewBox="0 0 31 31" fill="none" xmlns="http://www.w3.org/2000/svg">
<path fill-rule="evenodd" clip-rule="evenodd" d="M15.4934 0.658792C13.9899 0.638442 12.4972 0.907783 11.1021 1.45116C9.70699 1.99455 8.43723 2.80113 7.36661 3.82406C6.29599 4.84699 5.44585 6.06587 4.86559 7.40987C4.28533 8.75387 3.98652 10.1962 3.98652 11.653C3.98652 13.1099 4.28533 14.5522 4.86559 15.8962C5.44585 17.2402 6.29599 18.4591 7.36661 19.482C8.43723 20.505 9.70699 21.3115 11.1021 21.8549C12.4972 22.3983 13.9899 22.6676 15.4934 22.6473C18.5031 22.6473 21.3896 21.4889 23.5178 19.4268C25.6461 17.3648 26.8417 14.5681 26.8417 11.652C26.8417 8.73583 25.6461 5.93913 23.5178 3.8771C21.3896 1.81508 18.5031 0.658792 15.4934 0.658792ZM15.9429 5.85717L17.4552 8.80499C17.4881 8.87988 17.5412 8.94476 17.6091 8.99273C17.6769 9.04071 17.7569 9.06999 17.8405 9.07746L21.1974 9.57091C21.2935 9.58281 21.3842 9.62104 21.4586 9.68111C21.5331 9.74118 21.5884 9.82059 21.6179 9.91002C21.6474 9.99945 21.65 10.0952 21.6253 10.186C21.6007 10.2768 21.5498 10.3589 21.4786 10.4226L19.003 12.7054C18.9658 12.7735 18.9463 12.8493 18.9463 12.9264C18.9463 13.0034 18.9658 13.0793 19.003 13.1473L19.4769 16.3826C19.4968 16.4758 19.4885 16.5726 19.453 16.6613C19.4175 16.75 19.3563 16.8268 19.2767 16.8826C19.1972 16.9384 19.1027 16.9707 19.0046 16.9756C18.9066 16.9805 18.8091 16.9579 18.724 16.9104L15.7347 15.3786C15.6572 15.3445 15.573 15.3269 15.4878 15.3269C15.4027 15.3269 15.3185 15.3445 15.2409 15.3786L12.2516 16.9104C12.1665 16.9579 12.0691 16.9805 11.971 16.9756C11.8729 16.9707 11.7785 16.9384 11.6989 16.8826C11.6193 16.8268 11.5581 16.75 11.5226 16.6613C11.4871 16.5726 11.4788 16.4758 11.4987 16.3826L12.059 13.1473C12.0834 13.0723 12.088 12.9926 12.0726 12.9155C12.0571 12.8383 12.022 12.7661 11.9704 12.7054L9.49259 10.4055C9.42604 10.3411 9.37918 10.2601 9.35722 10.1715C9.33527 10.0829 9.33906 9.99014 9.36818 9.9035C9.3973 9.81686 9.45061 9.73972 9.52221 9.68064C9.5938 9.62155 9.68089 9.58283 9.7738 9.56876L13.1329 9.09462C13.2165 9.08715 13.2965 9.05787 13.3644 9.0099C13.4322 8.96192 13.4854 8.89705 13.5182 8.82215L15.0306 5.87433C15.0708 5.79066 15.1345 5.71961 15.2144 5.66926C15.2942 5.6189 15.387 5.59126 15.4823 5.58947C15.5776 5.58769 15.6714 5.61182 15.7532 5.65914C15.835 5.70647 15.9015 5.77507 15.9451 5.85717H15.9429ZM27.2358 19.2404C25.3252 22.0091 22.441 24.0106 19.1204 24.8721L22.247 30.1198C22.3564 30.3036 22.5195 30.4518 22.7158 30.5457C22.9122 30.6397 23.1328 30.6751 23.3499 30.6476C23.567 30.62 23.7708 30.5307 23.9355 30.3909C24.1002 30.2512 24.2185 30.0672 24.2753 29.8624L25.4046 25.7882L29.6073 26.8802C29.8188 26.9349 30.0422 26.9276 30.2494 26.8593C30.4566 26.791 30.6383 26.6648 30.7715 26.4965C30.9046 26.3282 30.9833 26.1255 30.9976 25.9139C31.0119 25.7023 30.9612 25.4913 30.8518 25.3076L27.2358 19.2404ZM11.8774 24.8742C8.55479 24.0195 5.66787 22.0203 3.75754 19.2511L0.148216 25.3076C0.0388245 25.4913 -0.0119301 25.7023 0.00236451 25.9139C0.0166591 26.1255 0.0953616 26.3282 0.228529 26.4965C0.361697 26.6648 0.543355 26.791 0.750554 26.8593C0.957753 26.9276 1.1812 26.9349 1.39266 26.8802L5.59762 25.7882L6.72471 29.8624C6.78154 30.0672 6.89979 30.2512 7.0645 30.3909C7.22922 30.5307 7.433 30.62 7.6501 30.6476C7.86719 30.6751 8.08784 30.6397 8.28416 30.5457C8.48047 30.4518 8.64363 30.3036 8.75301 30.1198L11.8774 24.8742Z" fill="#3A66FF"/>
</svg>
