<svg width="22" height="20" viewBox="0 0 22 20" fill="none" xmlns="http://www.w3.org/2000/svg">
<path d="M10 15.0962L12 17.0962C12.197 17.2932 12.4308 17.4495 12.6882 17.5561C12.9456 17.6627 13.2214 17.7176 13.5 17.7176C13.7786 17.7176 14.0544 17.6627 14.3118 17.5561C14.5692 17.4495 14.803 17.2932 15 17.0962C15.197 16.8993 15.3532 16.6654 15.4598 16.408C15.5665 16.1507 15.6213 15.8748 15.6213 15.5962C15.6213 15.3177 15.5665 15.0418 15.4598 14.7844C15.3532 14.5271 15.197 14.2932 15 14.0962" stroke="#869FFA" stroke-width="1.5" stroke-linecap="round" stroke-linejoin="round"/>
<path d="M13.0002 12.0962L15.5002 14.5962C15.8981 14.9941 16.4376 15.2176 17.0002 15.2176C17.5628 15.2176 18.1024 14.9941 18.5002 14.5962C18.8981 14.1984 19.1215 13.6588 19.1215 13.0962C19.1215 12.5336 18.8981 11.9941 18.5002 11.5962L14.6202 7.71624C14.0577 7.15444 13.2952 6.83888 12.5002 6.83888C11.7052 6.83888 10.9427 7.15444 10.3802 7.71624L9.50023 8.59624C9.1024 8.99406 8.56284 9.21756 8.00023 9.21756C7.43762 9.21756 6.89805 8.99406 6.50023 8.59624C6.1024 8.19841 5.87891 7.65885 5.87891 7.09624C5.87891 6.53363 6.1024 5.99406 6.50023 5.59624L9.31023 2.78624C10.2225 1.87638 11.4121 1.29679 12.6909 1.13921C13.9696 0.981631 15.2644 1.25507 16.3702 1.91624L16.8402 2.19624C17.266 2.45322 17.7723 2.54235 18.2602 2.44624L20.0002 2.09624" stroke="#869FFA" stroke-width="1.5" stroke-linecap="round" stroke-linejoin="round"/>
<path d="M20 1.09624L21 12.0962H19M2 1.09624L1 12.0962L7.5 18.5962C7.89782 18.9941 8.43739 19.2176 9 19.2176C9.56261 19.2176 10.1022 18.9941 10.5 18.5962C10.8978 18.1984 11.1213 17.6588 11.1213 17.0962C11.1213 16.5336 10.8978 15.9941 10.5 15.5962M2 2.09624H10" stroke="#869FFA" stroke-width="1.5" stroke-linecap="round" stroke-linejoin="round"/>
</svg>
