<svg width="29" height="30" viewBox="0 0 29 30" fill="none" xmlns="http://www.w3.org/2000/svg">
<path d="M3.31965 9.37859L3.92361 8.33206C4.37963 7.53982 4.60826 7.1437 4.99704 6.98599C5.3846 6.82705 5.82351 6.95298 6.70255 7.20116L8.19411 7.62173C8.75528 7.75133 9.34334 7.67797 9.85438 7.41389L10.2664 7.17671C10.7054 6.89541 11.0429 6.48118 11.2298 5.99447L11.6381 4.77432C11.9071 3.96741 12.0416 3.56396 12.3607 3.33411C12.6798 3.10182 13.1052 3.10182 13.9537 3.10182H15.3169C16.1654 3.10182 16.5896 3.10182 16.9099 3.33411C17.229 3.56396 17.3623 3.96741 17.6313 4.77432L18.0396 5.99447C18.2268 6.48135 18.5648 6.89561 19.0042 7.17671L19.4163 7.41511C19.9273 7.67797 20.5166 7.75133 21.0765 7.62296L22.5681 7.20116C23.4471 6.95298 23.886 6.82827 24.2736 6.98599C24.6624 7.1437 24.891 7.53982 25.347 8.33083L25.9498 9.37859C26.3777 10.1219 26.5916 10.4924 26.5501 10.8873C26.5085 11.2834 26.2224 11.6013 25.6502 12.2382L24.3897 13.6479C24.0817 14.0379 23.8628 14.7176 23.8628 15.3289C23.8628 15.9402 24.0817 16.62 24.3885 17.01L25.6502 18.4184C26.2224 19.0554 26.5085 19.3745 26.5501 19.7694C26.5916 20.1643 26.3789 20.5359 25.951 21.278L25.347 22.3258C24.891 23.1168 24.6624 23.5129 24.2736 23.6707C23.8848 23.8284 23.4471 23.7049 22.5681 23.4555L21.0765 23.0349C20.5155 22.9065 19.9271 22.9801 19.415 23.2428L19.0042 23.4799C18.5641 23.7611 18.2267 24.1768 18.0408 24.6634L17.6325 25.8823C17.3635 26.6892 17.229 27.0927 16.9099 27.325C16.5896 27.5548 16.1654 27.5548 15.3169 27.5548H13.9537C13.1052 27.5548 12.6798 27.5548 12.3607 27.3238C12.0416 27.0927 11.9071 26.6892 11.6394 25.8823L11.2298 24.6634C11.044 24.1756 10.7065 23.7611 10.2664 23.4799L9.85561 23.2428C9.34212 22.9799 8.75528 22.9053 8.19288 23.0349L6.70133 23.4555C5.82351 23.7049 5.3846 23.8296 4.99704 23.6719C4.60826 23.5129 4.37963 23.1168 3.92361 22.3258L3.32087 21.278C2.89296 20.5359 2.67901 20.1655 2.72058 19.7694C2.76215 19.3733 3.04823 19.0554 3.6204 18.4184L4.88089 17.01C5.18899 16.6188 5.40783 15.9402 5.40783 15.3289C5.40783 14.7176 5.18898 14.0379 4.88211 13.6479L3.6204 12.2382C3.04823 11.6025 2.76215 11.2834 2.72058 10.8873C2.67901 10.4911 2.89174 10.1219 3.31965 9.37859Z" stroke="#B9B9B9" stroke-width="1.83388" stroke-linecap="round" stroke-linejoin="round"/>
<path d="M10.4077 15.3191C10.4077 16.454 10.8585 17.5424 11.661 18.3449C12.4635 19.1474 13.5519 19.5982 14.6868 19.5982C15.8216 19.5982 16.91 19.1474 17.7125 18.3449C18.515 17.5424 18.9658 16.454 18.9658 15.3191C18.9658 14.1843 18.515 13.0959 17.7125 12.2934C16.91 11.4909 15.8216 11.0401 14.6868 11.0401C13.5519 11.0401 12.4635 11.4909 11.661 12.2934C10.8585 13.0959 10.4077 14.1843 10.4077 15.3191Z" stroke="#B9B9B9" stroke-width="1.83388" stroke-linecap="round" stroke-linejoin="round"/>
</svg>
